<?xml version="1.0" encoding="utf-8"?>
<!-- Generator: Adobe Illustrator 16.0.0, SVG Export Plug-In . SVG Version: 6.00 Build 0)  -->
<!DOCTYPE svg PUBLIC "-//W3C//DTD SVG 1.1//EN" "http://www.w3.org/Graphics/SVG/1.1/DTD/svg11.dtd">
<svg version="1.1" id="Layer_1" xmlns="http://www.w3.org/2000/svg" xmlns:xlink="http://www.w3.org/1999/xlink" x="0px" y="0px"
	 width="760px" height="760px" viewBox="0 0 760 760" enable-background="new 0 0 760 760" xml:space="preserve">
<g>
	<g>
		<g>
			<g>
				<polygon fill="#FFFFFF" points="169.876,372.916 150.47,437.314 129,372.588 99.455,372.588 77.979,437.314 58.581,372.916 
					21.863,372.916 61.571,492.537 91.437,492.537 113.813,428.123 136.357,492.537 166.211,492.537 205.922,372.916 				"/>
				<path fill="#FFFFFF" d="M239.739,398.002c-13.739,0-24.765,2.113-36.864,7.075l-1.035,0.421l7.181,24.655l1.271-0.515
					c8.788-3.48,15.823-4.895,24.303-4.895c10.979,0,16.596,4.425,16.697,13.142c-4.962-1.532-12.457-3.012-20.352-3.012
					c-22.838,0-36.472,11.034-36.472,29.499v0.334c0,17.604,12.361,28.986,31.487,28.986c10.02,0,18.468-3.188,25.167-9.49v7.492
					h33.729v-52.91c0-13.434-3.18-22.812-9.996-29.455C267.225,401.711,255.738,398.002,239.739,398.002z M251.622,454.586v3.312
					c0,8.104-5.777,13.54-14.374,13.54c-6.005,0-9.89-3.354-9.89-8.56v-0.331c0-6.095,5.062-9.885,13.212-9.885
					C244.353,452.666,248.414,453.379,251.622,454.586z"/>
				<path fill="#FFFFFF" d="M333.863,376.569h-34.068v22.764h-10.627v27.913h10.627v35.305c0,20.854,10.3,30.986,31.49,30.986
					c8.538,0,16.333-1.833,22.539-5.301l0.638-0.357v-27.473l-1.786,0.852c-4.03,1.935-7.771,2.868-11.423,2.868
					c-5.25,0-7.388-2.243-7.388-7.725v-29.154h20.928V399.33h-20.928L333.863,376.569L333.863,376.569z"/>
				<rect x="363.257" y="399.328" fill="#FFFFFF" width="34.076" height="92.376"/>
				<rect x="362.598" y="367.935" fill="#FFFFFF" width="35.397" height="25.739"/>
				<path fill="#FFFFFF" d="M544.541,400.581l-19.202,61.388l-20.444-61.626l-56.725-0.021v-0.917c0-4.931,2.456-7.229,7.731-7.229
					c4.053,0,7.572,0.548,11.419,1.77l1.623,0.518v-24.896l-0.896-0.265c-5.854-1.762-12.322-2.544-20.954-2.544
					c-11.156,0-18.646,2.521-24.308,8.169c-5.396,5.388-8.004,13.279-8.004,24.14v0.742H404.31v27.26h10.473v64.627h33.891v-64.627
					h20.105v-23.355l38.669,96.862c-2.269,3.197-4.71,4.132-8.288,4.132c-3.957,0-9.979-2.067-15.629-5.445l-11.114,25.043
					c9.421,5.272,20.156,8.854,32.768,8.854c20.346,0,29.945-9.41,38.811-33.146l37.281-99.428h-36.729l0,0L544.541,400.581
					L544.541,400.581z"/>
			</g>
		</g>
	</g>
	<g>
		<g>
			<g>
				<path fill="#FFFFFF" d="M168.591,526.049c-0.087,4.102,2.87,5.354,6.498,5.354c2.092,0,5.271-1.143,5.271-4.042
					c0-2.262-2.259-3.155-4.099-3.602l-4.436-1.091c-2.339-0.586-4.487-1.696-4.487-4.795c0-1.953,1.253-5.604,6.859-5.604
					c3.932,0,7.388,2.116,7.363,6.188h-1.898c-0.112-3.035-2.621-4.57-5.438-4.57c-2.594,0-4.992,1.002-4.992,3.961
					c0,1.866,1.394,2.646,3.01,3.041l4.854,1.195c2.816,0.753,5.157,1.981,5.157,5.244c0,1.367-0.559,5.686-7.61,5.686
					c-4.714,0-8.169-2.112-7.947-6.965L168.591,526.049L168.591,526.049z"/>
				<path fill="#FFFFFF" d="M183.124,512.688h15.783v1.62h-6.943v18.283h-1.899v-18.283h-6.942L183.124,512.688L183.124,512.688z"/>
				<path fill="#FFFFFF" d="M200.923,512.688h1.896v19.906h-1.896V512.688z"/>
				<path fill="#FFFFFF" d="M206.918,512.688h2.787l6.889,17.462l6.861-17.462h2.788v19.906h-1.9v-17.2h-0.053l-6.805,17.2H215.7
					l-6.833-17.2h-0.055v17.2h-1.897L206.918,512.688L206.918,512.688z"/>
				<path fill="#FFFFFF" d="M230.019,512.688h1.893v12.327c-0.026,4.63,2.177,6.389,5.832,6.389c3.68,0,5.881-1.759,5.854-6.389
					v-12.327h1.896v12.745c0,4.101-2.204,7.579-7.749,7.579c-5.525,0-7.725-3.481-7.725-7.579L230.019,512.688L230.019,512.688z"/>
				<path fill="#FFFFFF" d="M249.318,512.688h1.897v18.298h11.156v1.605h-13.05v-19.906h-0.003V512.688L249.318,512.688z"/>
				<path fill="#FFFFFF" d="M270.126,512.688h2.116l7.808,19.906h-2.03l-2.428-6.188h-9.064l-2.396,6.188h-2.035L270.126,512.688z
					 M267.112,524.794h7.838l-3.848-10.207L267.112,524.794z"/>
				<path fill="#FFFFFF" d="M277.829,512.688h15.783v1.62h-6.943v18.283h-1.899v-18.283h-6.941V512.688L277.829,512.688z"/>
				<path fill="#FFFFFF" d="M295.624,512.688h1.901v19.906h-1.901V512.688z"/>
				<path fill="#FFFFFF" d="M301.652,512.688h2.119l11.601,16.846h0.059v-16.846h1.893v19.906h-2.12l-11.6-16.838h-0.055v16.838
					h-1.896L301.652,512.688L301.652,512.688z"/>
				<path fill="#FFFFFF" d="M338.328,532.599h-1.364l-0.256-3.624h-0.052c-1.338,2.848-4.016,4.042-6.889,4.042
					c-6.273,0-9.396-4.936-9.396-10.372c0-5.438,3.123-10.374,9.396-10.374c4.187,0,7.586,2.259,8.311,6.613h-1.896
					c-0.25-2.291-2.623-4.993-6.414-4.993c-5.271,0-7.5,4.399-7.5,8.752c0,4.354,2.229,8.759,7.5,8.759
					c4.404,0,6.975-3.099,6.889-7.311h-6.778v-1.62h8.453L338.328,532.599L338.328,532.599z"/>
				<path fill="#FFFFFF" d="M349.744,512.688h6.883c5.997,0.142,9.148,3.43,9.148,9.954c0,6.527-3.151,9.815-9.148,9.952h-6.883
					V512.688z M351.639,530.984h4.044c5.715,0.022,8.197-2.399,8.197-8.342c0-5.936-2.482-8.362-8.197-8.333h-4.044V530.984z"/>
				<path fill="#FFFFFF" d="M368.99,512.688h1.898v19.906h-1.898V512.688z"/>
				<path fill="#FFFFFF" d="M392.057,532.599h-1.367l-0.25-3.624h-0.058c-1.336,2.848-4.017,4.042-6.88,4.042
					c-6.275,0-9.4-4.936-9.4-10.372c0-5.438,3.123-10.374,9.4-10.374c4.182,0,7.577,2.259,8.305,6.613h-1.898
					c-0.247-2.291-2.62-4.993-6.403-4.993c-5.272,0-7.502,4.399-7.502,8.752c0,4.354,2.229,8.759,7.502,8.759
					c4.396,0,6.964-3.099,6.88-7.311h-6.769v-1.62h8.444v10.128H392.057L392.057,532.599z"/>
				<path fill="#FFFFFF" d="M395.854,512.688h1.896v19.906h-1.896V512.688z"/>
				<path fill="#FFFFFF" d="M399.756,512.688h15.782v1.62h-6.94v18.283h-1.899v-18.283h-6.944L399.756,512.688L399.756,512.688z"/>
				<path fill="#FFFFFF" d="M421.348,512.688h2.118l7.806,19.906h-2.036l-2.425-6.188h-9.062l-2.396,6.188h-2.037L421.348,512.688z
					 M418.337,524.794h7.833l-3.849-10.207L418.337,524.794z"/>
				<path fill="#FFFFFF" d="M433.094,512.688h1.896v18.298h11.15v1.605h-13.049L433.094,512.688L433.094,512.688z"/>
				<path fill="#FFFFFF" d="M177.133,541.338h13.748v1.617h-11.853v7.193h11.099v1.623h-11.099v7.854h11.991v1.62h-13.887
					L177.133,541.338L177.133,541.338z"/>
				<path fill="#FFFFFF" d="M193.647,541.338h2.118l11.6,16.84h0.053v-16.84h1.901v19.913h-2.117l-11.604-16.841h-0.054v16.841
					h-1.896L193.647,541.338L193.647,541.338z"/>
				<path fill="#FFFFFF" d="M211.164,541.338h15.788v1.617h-6.942v18.293h-1.896v-18.293h-6.946L211.164,541.338L211.164,541.338z"
					/>
				<path fill="#FFFFFF" d="M228.823,541.338h9.117c3.292,0,6.051,1.592,6.051,5.188c0,2.507-1.307,4.574-3.874,5.072v0.056
					c2.591,0.332,3.345,2.126,3.487,4.492c0.082,1.362,0.082,4.097,0.921,5.104h-2.093c-0.475-0.785-0.475-2.257-0.528-3.096
					c-0.169-2.788-0.394-5.888-3.986-5.744h-7.193v8.84h-1.899L228.823,541.338L228.823,541.338z M230.722,550.792h7.081
					c2.315,0,4.292-1.452,4.292-3.877c0-2.427-1.449-3.959-4.292-3.959h-7.081V550.792z"/>
				<path fill="#FFFFFF" d="M247.432,541.338h13.746v1.617h-11.854v7.193h11.099v1.623h-11.099v7.854h11.991v1.62h-13.884
					L247.432,541.338L247.432,541.338z"/>
				<path fill="#FFFFFF" d="M263.969,541.338h8.843c3.566,0,5.911,2.092,5.911,5.69c0,3.595-2.342,5.687-5.911,5.687h-6.946v8.538
					h-1.896L263.969,541.338L263.969,541.338z M265.868,551.102h6.525c2.622,0,4.435-1.343,4.435-4.07
					c0-2.734-1.812-4.073-4.435-4.073h-6.525V551.102z"/>
				<path fill="#FFFFFF" d="M281.545,541.338h9.12c3.286,0,6.05,1.592,6.05,5.188c0,2.507-1.309,4.574-3.876,5.072v0.056
					c2.594,0.332,3.348,2.126,3.486,4.492c0.083,1.362,0.083,4.097,0.921,5.104h-2.092c-0.477-0.785-0.477-2.257-0.528-3.096
					c-0.168-2.788-0.389-5.888-3.984-5.744h-7.196v8.84h-1.899L281.545,541.338L281.545,541.338L281.545,541.338z M283.443,550.792
					h7.081c2.318,0,4.297-1.452,4.297-3.877c0-2.427-1.455-3.959-4.297-3.959h-7.081V550.792z"/>
				<path fill="#FFFFFF" d="M300.15,541.338h13.747v1.617h-11.855v7.193h11.104v1.623h-11.104v7.854h11.992v1.62H300.15V541.338
					L300.15,541.338L300.15,541.338z"/>
				<path fill="#FFFFFF" d="M316.667,541.338h2.118l11.602,16.84h0.055v-16.84h1.896v19.913h-2.12l-11.601-16.841h-0.055v16.841
					h-1.896L316.667,541.338L316.667,541.338z"/>
				<path fill="#FFFFFF" d="M336.33,541.338h13.751v1.617h-11.855v7.193h11.104v1.623h-11.104v7.854h11.994v1.62h-13.89V541.338
					L336.33,541.338z"/>
				<path fill="#FFFFFF" d="M352.675,541.338h1.901v12.326c-0.03,4.631,2.172,6.384,5.828,6.384c3.683,0,5.885-1.753,5.851-6.384
					v-12.326h1.897v12.744c0,4.099-2.201,7.589-7.748,7.589c-5.521,0-7.729-3.493-7.729-7.589V541.338L352.675,541.338z"/>
				<path fill="#FFFFFF" d="M371.98,541.338h9.121c3.291,0,6.053,1.592,6.053,5.188c0,2.507-1.316,4.574-3.881,5.072v0.056
					c2.595,0.332,3.352,2.126,3.483,4.492c0.089,1.362,0.089,4.097,0.927,5.104h-2.096c-0.471-0.785-0.471-2.257-0.521-3.096
					c-0.172-2.788-0.396-5.888-3.987-5.744h-7.19v8.84h-1.896L371.98,541.338L371.98,541.338z M373.88,550.792h7.081
					c2.312,0,4.292-1.452,4.292-3.877c0-2.427-1.446-3.959-4.292-3.959h-7.081V550.792z"/>
				<path fill="#FFFFFF" d="M391.477,554.694c-0.084,4.099,2.873,5.354,6.499,5.354c2.096,0,5.271-1.14,5.271-4.041
					c0-2.257-2.26-3.151-4.101-3.599l-4.435-1.086c-2.344-0.585-4.489-1.699-4.489-4.798c0-1.949,1.254-5.604,6.862-5.604
					c3.933,0,7.389,2.117,7.36,6.188h-1.897c-0.104-3.038-2.623-4.579-5.436-4.579c-2.591,0-4.994,1.007-4.994,3.965
					c0,1.868,1.396,2.647,3.012,3.042l4.854,1.196c2.815,0.756,5.16,1.979,5.16,5.242c0,1.363-0.562,5.694-7.611,5.694
					c-4.713,0-8.172-2.126-7.944-6.978L391.477,554.694L391.477,554.694z"/>
				<path fill="#FFFFFF" d="M408.157,541.338h1.907v8.646h11.814v-8.646h1.897v19.913h-1.897v-9.649h-11.814v9.649h-1.907V541.338z"
					/>
				<path fill="#FFFFFF" d="M427.938,541.338h1.9v19.913h-1.9V541.338z"/>
				<path fill="#FFFFFF" d="M433.99,541.338h8.84c3.566,0,5.911,2.092,5.911,5.69c0,3.595-2.345,5.687-5.911,5.687h-6.944v8.538
					h-1.896V541.338L433.99,541.338z M435.889,551.102h6.521c2.623,0,4.44-1.343,4.44-4.07c0-2.734-1.817-4.073-4.44-4.073h-6.521
					V551.102z"/>
			</g>
		</g>
	</g>
</g>
</svg>
