<?xml version="1.0" encoding="utf-8"?>
<!-- Generator: Adobe Illustrator 16.0.0, SVG Export Plug-In . SVG Version: 6.00 Build 0)  -->
<!DOCTYPE svg PUBLIC "-//W3C//DTD SVG 1.1//EN" "http://www.w3.org/Graphics/SVG/1.1/DTD/svg11.dtd">
<svg version="1.1" id="Layer_1" xmlns="http://www.w3.org/2000/svg" xmlns:xlink="http://www.w3.org/1999/xlink" x="0px" y="0px"
	 width="760px" height="760px" viewBox="0 0 760 760" enable-background="new 0 0 760 760" xml:space="preserve">
<g>
	<g>
		<g>
			<g>
				<polygon fill="#FFFFFF" points="169.876,372.916 150.47,437.314 129,372.588 99.455,372.588 77.979,437.314 58.581,372.916 
					21.863,372.916 61.571,492.537 91.437,492.537 113.813,428.123 136.357,492.537 166.211,492.537 205.922,372.916 				"/>
				<path fill="#FFFFFF" d="M239.739,398.002c-13.739,0-24.765,2.113-36.864,7.075l-1.035,0.421l7.181,24.655l1.271-0.516
					c8.788-3.479,15.823-4.895,24.303-4.895c10.979,0,16.596,4.425,16.697,13.142c-4.962-1.532-12.457-3.012-20.352-3.012
					c-22.838,0-36.472,11.034-36.472,29.499v0.334c0,17.604,12.361,28.986,31.487,28.986c10.02,0,18.468-3.188,25.167-9.49v7.492
					h33.729v-52.91c0-13.435-3.18-22.812-9.996-29.455C267.225,401.711,255.738,398.002,239.739,398.002z M251.622,454.586v3.312
					c0,8.104-5.777,13.54-14.374,13.54c-6.005,0-9.89-3.354-9.89-8.561v-0.331c0-6.095,5.062-9.885,13.212-9.885
					C244.353,452.666,248.414,453.379,251.622,454.586z"/>
				<path fill="#FFFFFF" d="M333.863,376.569h-34.068v22.764h-10.627v27.913h10.627v35.305c0,20.854,10.3,30.986,31.49,30.986
					c8.538,0,16.333-1.833,22.539-5.301l0.638-0.357v-27.473l-1.786,0.852c-4.029,1.936-7.771,2.868-11.423,2.868
					c-5.25,0-7.388-2.243-7.388-7.725v-29.154h20.928V399.33h-20.928L333.863,376.569L333.863,376.569z"/>
				<rect x="363.257" y="399.328" fill="#FFFFFF" width="34.076" height="92.376"/>
				<rect x="362.598" y="367.935" fill="#FFFFFF" width="35.397" height="25.739"/>
				<path fill="#FFFFFF" d="M544.541,400.581l-19.202,61.388l-20.444-61.626l-56.725-0.021v-0.918c0-4.93,2.456-7.229,7.731-7.229
					c4.053,0,7.571,0.549,11.419,1.77l1.623,0.519v-24.896l-0.896-0.265c-5.854-1.762-12.322-2.544-20.954-2.544
					c-11.156,0-18.646,2.521-24.308,8.169c-5.396,5.388-8.004,13.279-8.004,24.141v0.742H404.31v27.26h10.474v64.627h33.891V427.07
					h20.105v-23.355l38.669,96.862c-2.27,3.197-4.71,4.132-8.288,4.132c-3.957,0-9.979-2.067-15.629-5.445l-11.114,25.043
					c9.421,5.272,20.156,8.854,32.768,8.854c20.347,0,29.945-9.41,38.812-33.146l37.281-99.428h-36.729l0,0L544.541,400.581
					L544.541,400.581z"/>
			</g>
		</g>
	</g>
</g>
</svg>
